# Blender v3.0.0 OBJ File: ''
# www.blender.org
mtllib circle.mtl
o Circle
v 0.000000 0.000000 -1.000000
v -0.195090 0.000000 -0.980785
v -0.382683 0.000000 -0.923880
v -0.555570 0.000000 -0.831470
v -0.707107 0.000000 -0.707107
v -0.831470 0.000000 -0.555570
v -0.923880 0.000000 -0.382683
v -0.980785 0.000000 -0.195090
v -1.000000 0.000000 0.000000
v -0.980785 0.000000 0.195090
v -0.923880 0.000000 0.382683
v -0.831470 0.000000 0.555570
v -0.707107 0.000000 0.707107
v -0.555570 0.000000 0.831470
v -0.382683 0.000000 0.923880
v -0.195090 0.000000 0.980785
v 0.000000 0.000000 1.000000
v 0.195090 0.000000 0.980785
v 0.382683 0.000000 0.923880
v 0.555570 0.000000 0.831470
v 0.707107 0.000000 0.707107
v 0.831469 0.000000 0.555570
v 0.923880 0.000000 0.382684
v 0.980785 0.000000 0.195090
v 1.000000 0.000000 -0.000000
v 0.980785 0.000000 -0.195090
v 0.923879 0.000000 -0.382684
v 0.831470 0.000000 -0.555570
v 0.707107 0.000000 -0.707107
v 0.555570 0.000000 -0.831470
v 0.382683 0.000000 -0.923880
v 0.195090 0.000000 -0.980785
vt 0.000000 0.000000
vt 0.000000 0.000000
vt 0.000000 0.000000
vt 0.000000 0.000000
vt 0.000000 0.000000
vt 0.000000 0.000000
vt 0.000000 0.000000
vt 0.000000 0.000000
vt 0.000000 0.000000
vt 0.000000 0.000000
vt 0.000000 0.000000
vt 0.000000 0.000000
vt 0.000000 0.000000
vt 0.000000 0.000000
vt 0.000000 0.000000
vt 0.000000 0.000000
vt 0.000000 0.000000
vt 0.000000 0.000000
vt 0.000000 0.000000
vt 0.000000 0.000000
vt 0.000000 0.000000
vt 0.000000 0.000000
vt 0.000000 0.000000
vt 0.000000 0.000000
vt 0.000000 0.000000
vt 0.000000 0.000000
vt 0.000000 0.000000
vt 0.000000 0.000000
vt 0.000000 0.000000
vt 0.000000 0.000000
vt 0.000000 0.000000
vt 0.000000 0.000000
vn 0.0000 1.0000 0.0000
usemtl None
s off
f 32/1/1 1/2/1 2/3/1
f 31/4/1 32/1/1 2/3/1
f 3/5/1 30/6/1 2/3/1
f 4/7/1 29/8/1 3/5/1
f 26/9/1 27/10/1 28/11/1
f 29/8/1 4/7/1 5/12/1
f 6/13/1 28/11/1 5/12/1
f 29/8/1 30/6/1 3/5/1
f 28/11/1 6/13/1 7/14/1
f 7/14/1 26/9/1 28/11/1
f 21/15/1 22/16/1 12/17/1
f 26/9/1 7/14/1 8/18/1
f 25/19/1 26/9/1 8/18/1
f 25/19/1 8/18/1 9/20/1
f 24/21/1 25/19/1 9/20/1
f 24/21/1 9/20/1 10/22/1
f 24/21/1 10/22/1 11/23/1
f 11/23/1 22/16/1 24/21/1
f 12/17/1 22/16/1 11/23/1
f 22/16/1 23/24/1 24/21/1
f 13/25/1 21/15/1 12/17/1
f 30/6/1 31/4/1 2/3/1
f 21/15/1 13/25/1 14/26/1
f 20/27/1 21/15/1 14/26/1
f 19/28/1 20/27/1 14/26/1
f 19/28/1 14/26/1 15/29/1
f 15/29/1 17/30/1 19/28/1
f 16/31/1 17/30/1 15/29/1
f 17/30/1 18/32/1 19/28/1
f 28/11/1 29/8/1 5/12/1
